<mxfile host="app.diagrams.net" agent="Mozilla/5.0 (Windows NT 10.0; Win64; x64) AppleWebKit/537.36 (KHTML, like Gecko) Chrome/127.0.0.0 Safari/537.36" version="24.7.6" pages="2">
  <diagram name="wireframes" id="f1b7ffb7-ca1e-a977-7cf5-a751b3c06c05">
    <mxGraphModel dx="4585" dy="2729" grid="1" gridSize="10" guides="1" tooltips="1" connect="1" arrows="1" fold="1" page="1" pageScale="1" pageWidth="826" pageHeight="1169" background="none" math="0" shadow="0">
      <root>
        <mxCell id="0" />
        <mxCell id="1" parent="0" />
        <mxCell id="FpdwGnJEtoLcLrsZp1eF-64" value="" style="rounded=0;whiteSpace=wrap;html=1;movable=1;resizable=1;rotatable=1;deletable=1;editable=1;locked=0;connectable=1;" parent="1" vertex="1">
          <mxGeometry x="-450" width="310" height="510" as="geometry" />
        </mxCell>
        <mxCell id="FpdwGnJEtoLcLrsZp1eF-75" value="" style="rounded=0;whiteSpace=wrap;html=1;movable=1;resizable=1;rotatable=1;deletable=1;editable=1;locked=0;connectable=1;" parent="1" vertex="1">
          <mxGeometry x="-440" y="10" width="290" height="490" as="geometry" />
        </mxCell>
        <mxCell id="FpdwGnJEtoLcLrsZp1eF-65" value="&lt;font face=&quot;Comic Sans MS&quot;&gt;MODES&lt;/font&gt;" style="rounded=1;whiteSpace=wrap;html=1;movable=1;resizable=1;rotatable=1;deletable=1;editable=1;locked=0;connectable=1;" parent="1" vertex="1">
          <mxGeometry x="-365.5" y="320" width="140" height="30" as="geometry" />
        </mxCell>
        <mxCell id="FpdwGnJEtoLcLrsZp1eF-71" value="&lt;font face=&quot;Comic Sans MS&quot;&gt;ABOUT&lt;/font&gt;" style="rounded=1;whiteSpace=wrap;html=1;movable=1;resizable=1;rotatable=1;deletable=1;editable=1;locked=0;connectable=1;" parent="1" vertex="1">
          <mxGeometry x="-366.5" y="370" width="142" height="30" as="geometry" />
        </mxCell>
        <mxCell id="FpdwGnJEtoLcLrsZp1eF-74" value="&lt;font face=&quot;Comic Sans MS&quot;&gt;EXIT&lt;/font&gt;" style="rounded=1;whiteSpace=wrap;html=1;movable=1;resizable=1;rotatable=1;deletable=1;editable=1;locked=0;connectable=1;" parent="1" vertex="1">
          <mxGeometry x="-365.5" y="420" width="142" height="30" as="geometry" />
        </mxCell>
        <mxCell id="FpdwGnJEtoLcLrsZp1eF-77" value="" style="rounded=0;whiteSpace=wrap;html=1;movable=1;resizable=1;rotatable=1;deletable=1;editable=1;locked=0;connectable=1;" parent="1" vertex="1">
          <mxGeometry x="-430" y="20" width="270" height="180" as="geometry" />
        </mxCell>
        <mxCell id="FpdwGnJEtoLcLrsZp1eF-78" value="" style="endArrow=none;html=1;rounded=0;exitX=0;exitY=1;exitDx=0;exitDy=0;movable=1;resizable=1;rotatable=1;deletable=1;editable=1;locked=0;connectable=1;" parent="1" source="FpdwGnJEtoLcLrsZp1eF-77" edge="1">
          <mxGeometry width="50" height="50" relative="1" as="geometry">
            <mxPoint x="-300" y="220" as="sourcePoint" />
            <mxPoint x="-160" y="20" as="targetPoint" />
          </mxGeometry>
        </mxCell>
        <mxCell id="FpdwGnJEtoLcLrsZp1eF-80" value="" style="endArrow=none;html=1;rounded=0;entryX=0;entryY=0;entryDx=0;entryDy=0;exitX=1;exitY=1;exitDx=0;exitDy=0;movable=1;resizable=1;rotatable=1;deletable=1;editable=1;locked=0;connectable=1;" parent="1" source="FpdwGnJEtoLcLrsZp1eF-77" target="FpdwGnJEtoLcLrsZp1eF-77" edge="1">
          <mxGeometry width="50" height="50" relative="1" as="geometry">
            <mxPoint x="-300" y="220" as="sourcePoint" />
            <mxPoint x="-250" y="170" as="targetPoint" />
          </mxGeometry>
        </mxCell>
        <mxCell id="FpdwGnJEtoLcLrsZp1eF-81" value="" style="sketch=0;outlineConnect=0;fontColor=#232F3E;gradientColor=none;fillColor=#232F3D;strokeColor=none;dashed=0;verticalLabelPosition=bottom;verticalAlign=top;align=center;html=1;fontSize=12;fontStyle=0;aspect=fixed;pointerEvents=1;shape=mxgraph.aws4.gear;movable=1;resizable=1;rotatable=1;deletable=1;editable=1;locked=0;connectable=1;" parent="1" vertex="1">
          <mxGeometry x="-430" y="472" width="20" height="20" as="geometry" />
        </mxCell>
        <mxCell id="FpdwGnJEtoLcLrsZp1eF-85" value="" style="shape=image;html=1;verticalAlign=top;verticalLabelPosition=bottom;labelBackgroundColor=#ffffff;imageAspect=0;aspect=fixed;image=https://cdn0.iconfinder.com/data/icons/phosphor-duotone-vol-3/256/speaker-low-duotone-128.png;movable=1;resizable=1;rotatable=1;deletable=1;editable=1;locked=0;connectable=1;" parent="1" vertex="1">
          <mxGeometry x="-404" y="470" width="24" height="24" as="geometry" />
        </mxCell>
        <mxCell id="FpdwGnJEtoLcLrsZp1eF-86" value="" style="sketch=0;pointerEvents=1;shadow=0;dashed=0;html=1;strokeColor=none;labelPosition=center;verticalLabelPosition=bottom;verticalAlign=top;align=center;fillColor=#505050;shape=mxgraph.mscae.intune.account_portal;movable=1;resizable=1;rotatable=1;deletable=1;editable=1;locked=0;connectable=1;" parent="1" vertex="1">
          <mxGeometry x="-180" y="472" width="20" height="20" as="geometry" />
        </mxCell>
        <mxCell id="FpdwGnJEtoLcLrsZp1eF-159" value="" style="rounded=0;whiteSpace=wrap;html=1;movable=1;resizable=1;rotatable=1;deletable=1;editable=1;locked=0;connectable=1;" parent="1" vertex="1">
          <mxGeometry x="153" width="310" height="510" as="geometry" />
        </mxCell>
        <mxCell id="FpdwGnJEtoLcLrsZp1eF-160" value="" style="rounded=0;whiteSpace=wrap;html=1;movable=1;resizable=1;rotatable=1;deletable=1;editable=1;locked=0;connectable=1;" parent="1" vertex="1">
          <mxGeometry x="163" y="10" width="290" height="490" as="geometry" />
        </mxCell>
        <mxCell id="FpdwGnJEtoLcLrsZp1eF-161" value="" style="rounded=0;whiteSpace=wrap;html=1;movable=1;resizable=1;rotatable=1;deletable=1;editable=1;locked=0;connectable=1;" parent="1" vertex="1">
          <mxGeometry x="153" y="710" width="310" height="510" as="geometry" />
        </mxCell>
        <mxCell id="FpdwGnJEtoLcLrsZp1eF-162" value="" style="rounded=0;whiteSpace=wrap;html=1;movable=1;resizable=1;rotatable=1;deletable=1;editable=1;locked=0;connectable=1;" parent="1" vertex="1">
          <mxGeometry x="163" y="720" width="290" height="490" as="geometry" />
        </mxCell>
        <mxCell id="FpdwGnJEtoLcLrsZp1eF-163" value="" style="rounded=0;whiteSpace=wrap;html=1;movable=1;resizable=1;rotatable=1;deletable=1;editable=1;locked=0;connectable=1;" parent="1" vertex="1">
          <mxGeometry x="740" y="710" width="310" height="510" as="geometry" />
        </mxCell>
        <mxCell id="FpdwGnJEtoLcLrsZp1eF-164" value="" style="rounded=0;whiteSpace=wrap;html=1;movable=1;resizable=1;rotatable=1;deletable=1;editable=1;locked=0;connectable=1;" parent="1" vertex="1">
          <mxGeometry x="750" y="720" width="290" height="490" as="geometry" />
        </mxCell>
        <mxCell id="FpdwGnJEtoLcLrsZp1eF-165" value="" style="rounded=0;whiteSpace=wrap;html=1;movable=1;resizable=1;rotatable=1;deletable=1;editable=1;locked=0;connectable=1;" parent="1" vertex="1">
          <mxGeometry x="153" y="1410" width="310" height="510" as="geometry" />
        </mxCell>
        <mxCell id="FpdwGnJEtoLcLrsZp1eF-166" value="" style="rounded=0;whiteSpace=wrap;html=1;movable=1;resizable=1;rotatable=1;deletable=1;editable=1;locked=0;connectable=1;" parent="1" vertex="1">
          <mxGeometry x="163" y="1420" width="290" height="490" as="geometry" />
        </mxCell>
        <mxCell id="FpdwGnJEtoLcLrsZp1eF-169" value="" style="rounded=0;whiteSpace=wrap;html=1;movable=1;resizable=1;rotatable=1;deletable=1;editable=1;locked=0;connectable=1;" parent="1" vertex="1">
          <mxGeometry x="153" y="2100" width="310" height="510" as="geometry" />
        </mxCell>
        <mxCell id="FpdwGnJEtoLcLrsZp1eF-170" value="" style="rounded=0;whiteSpace=wrap;html=1;movable=1;resizable=1;rotatable=1;deletable=1;editable=1;locked=0;connectable=1;" parent="1" vertex="1">
          <mxGeometry x="163" y="2110" width="290" height="490" as="geometry" />
        </mxCell>
        <mxCell id="FpdwGnJEtoLcLrsZp1eF-176" value="&lt;font style=&quot;font-size: 24px;&quot; face=&quot;Comic Sans MS&quot;&gt;MODES&lt;/font&gt;" style="rounded=1;whiteSpace=wrap;html=1;movable=1;resizable=1;rotatable=1;deletable=1;editable=1;locked=0;connectable=1;" parent="1" vertex="1">
          <mxGeometry x="203" y="770" width="210" height="100" as="geometry" />
        </mxCell>
        <mxCell id="FpdwGnJEtoLcLrsZp1eF-179" value="&lt;font face=&quot;Comic Sans MS&quot;&gt;MULTIPLAYER&lt;/font&gt;" style="rounded=1;whiteSpace=wrap;html=1;movable=1;resizable=1;rotatable=1;deletable=1;editable=1;locked=0;connectable=1;" parent="1" vertex="1">
          <mxGeometry x="223" y="900" width="170" height="40" as="geometry" />
        </mxCell>
        <mxCell id="FpdwGnJEtoLcLrsZp1eF-180" value="&lt;font face=&quot;Comic Sans MS&quot;&gt;CHALLENGE&lt;/font&gt;" style="rounded=1;whiteSpace=wrap;html=1;movable=1;resizable=1;rotatable=1;deletable=1;editable=1;locked=0;connectable=1;" parent="1" vertex="1">
          <mxGeometry x="223" y="965" width="170" height="40" as="geometry" />
        </mxCell>
        <mxCell id="FpdwGnJEtoLcLrsZp1eF-181" value="&lt;font face=&quot;Comic Sans MS&quot;&gt;PUZZLE&lt;/font&gt;" style="rounded=1;whiteSpace=wrap;html=1;movable=1;resizable=1;rotatable=1;deletable=1;editable=1;locked=0;connectable=1;" parent="1" vertex="1">
          <mxGeometry x="223" y="1030" width="170" height="40" as="geometry" />
        </mxCell>
        <mxCell id="FpdwGnJEtoLcLrsZp1eF-183" value="" style="shape=flexArrow;endArrow=classic;html=1;rounded=0;movable=1;resizable=1;rotatable=1;deletable=1;editable=1;locked=0;connectable=1;" parent="1" edge="1">
          <mxGeometry width="50" height="50" relative="1" as="geometry">
            <mxPoint x="213" y="472" as="sourcePoint" />
            <mxPoint x="176" y="472" as="targetPoint" />
          </mxGeometry>
        </mxCell>
        <mxCell id="FpdwGnJEtoLcLrsZp1eF-188" value="" style="shape=flexArrow;endArrow=classic;html=1;rounded=0;movable=1;resizable=1;rotatable=1;deletable=1;editable=1;locked=0;connectable=1;" parent="1" edge="1">
          <mxGeometry width="50" height="50" relative="1" as="geometry">
            <mxPoint x="804" y="1180" as="sourcePoint" />
            <mxPoint x="767" y="1180" as="targetPoint" />
          </mxGeometry>
        </mxCell>
        <mxCell id="FpdwGnJEtoLcLrsZp1eF-189" value="" style="shape=flexArrow;endArrow=classic;html=1;rounded=0;movable=1;resizable=1;rotatable=1;deletable=1;editable=1;locked=0;connectable=1;" parent="1" edge="1">
          <mxGeometry width="50" height="50" relative="1" as="geometry">
            <mxPoint x="217" y="1180" as="sourcePoint" />
            <mxPoint x="180" y="1180" as="targetPoint" />
          </mxGeometry>
        </mxCell>
        <mxCell id="FpdwGnJEtoLcLrsZp1eF-191" value="" style="shape=flexArrow;endArrow=classic;html=1;rounded=0;movable=1;resizable=1;rotatable=1;deletable=1;editable=1;locked=0;connectable=1;" parent="1" edge="1">
          <mxGeometry width="50" height="50" relative="1" as="geometry">
            <mxPoint x="217" y="1882" as="sourcePoint" />
            <mxPoint x="180" y="1882" as="targetPoint" />
          </mxGeometry>
        </mxCell>
        <mxCell id="FpdwGnJEtoLcLrsZp1eF-194" value="&lt;font style=&quot;font-size: 24px;&quot; face=&quot;Comic Sans MS&quot;&gt;MULTIPLAYER&lt;/font&gt;" style="rounded=1;whiteSpace=wrap;html=1;movable=1;resizable=1;rotatable=1;deletable=1;editable=1;locked=0;connectable=1;" parent="1" vertex="1">
          <mxGeometry x="790" y="770" width="210" height="100" as="geometry" />
        </mxCell>
        <mxCell id="FpdwGnJEtoLcLrsZp1eF-195" value="&lt;font face=&quot;Comic Sans MS&quot;&gt;LOCAL&lt;/font&gt;" style="rounded=1;whiteSpace=wrap;html=1;movable=1;resizable=1;rotatable=1;deletable=1;editable=1;locked=0;connectable=1;" parent="1" vertex="1">
          <mxGeometry x="810" y="900" width="170" height="40" as="geometry" />
        </mxCell>
        <mxCell id="FpdwGnJEtoLcLrsZp1eF-196" value="&lt;font face=&quot;Comic Sans MS&quot;&gt;ONLINE&lt;/font&gt;" style="rounded=1;whiteSpace=wrap;html=1;movable=1;resizable=1;rotatable=1;deletable=1;editable=1;locked=0;connectable=1;" parent="1" vertex="1">
          <mxGeometry x="810" y="965" width="170" height="40" as="geometry" />
        </mxCell>
        <mxCell id="FpdwGnJEtoLcLrsZp1eF-197" value="&lt;font style=&quot;font-size: 24px;&quot; face=&quot;Comic Sans MS&quot;&gt;ABOUT US&lt;/font&gt;" style="rounded=1;whiteSpace=wrap;html=1;movable=1;resizable=1;rotatable=1;deletable=1;editable=1;locked=0;connectable=1;" parent="1" vertex="1">
          <mxGeometry x="203" y="1472" width="210" height="100" as="geometry" />
        </mxCell>
        <mxCell id="FpdwGnJEtoLcLrsZp1eF-198" value="" style="rounded=0;whiteSpace=wrap;html=1;movable=1;resizable=1;rotatable=1;deletable=1;editable=1;locked=0;connectable=1;" parent="1" vertex="1">
          <mxGeometry x="173" y="1592" width="270" height="250" as="geometry" />
        </mxCell>
        <mxCell id="FpdwGnJEtoLcLrsZp1eF-199" value="" style="endArrow=none;html=1;rounded=0;exitX=0;exitY=1;exitDx=0;exitDy=0;movable=1;resizable=1;rotatable=1;deletable=1;editable=1;locked=0;connectable=1;" parent="1" source="FpdwGnJEtoLcLrsZp1eF-198" edge="1">
          <mxGeometry width="50" height="50" relative="1" as="geometry">
            <mxPoint x="303" y="1792" as="sourcePoint" />
            <mxPoint x="443" y="1592" as="targetPoint" />
          </mxGeometry>
        </mxCell>
        <mxCell id="FpdwGnJEtoLcLrsZp1eF-200" value="" style="endArrow=none;html=1;rounded=0;entryX=0;entryY=0;entryDx=0;entryDy=0;exitX=1;exitY=1;exitDx=0;exitDy=0;movable=1;resizable=1;rotatable=1;deletable=1;editable=1;locked=0;connectable=1;" parent="1" source="FpdwGnJEtoLcLrsZp1eF-198" target="FpdwGnJEtoLcLrsZp1eF-198" edge="1">
          <mxGeometry width="50" height="50" relative="1" as="geometry">
            <mxPoint x="303" y="1792" as="sourcePoint" />
            <mxPoint x="353" y="1742" as="targetPoint" />
          </mxGeometry>
        </mxCell>
        <mxCell id="0HAq0-r8FdL_kBgjU-N3-1" value="&lt;font style=&quot;font-size: 18px;&quot;&gt;MAIN MENU&lt;/font&gt;" style="text;html=1;align=center;verticalAlign=middle;resizable=1;points=[];autosize=1;strokeColor=none;fillColor=none;movable=1;rotatable=1;deletable=1;editable=1;locked=0;connectable=1;" vertex="1" parent="1">
          <mxGeometry x="-360.5" y="510" width="130" height="40" as="geometry" />
        </mxCell>
        <mxCell id="0HAq0-r8FdL_kBgjU-N3-9" value="" style="rounded=0;whiteSpace=wrap;html=1;movable=1;resizable=1;rotatable=1;deletable=1;editable=1;locked=0;connectable=1;" vertex="1" parent="1">
          <mxGeometry x="-850" width="310" height="510" as="geometry" />
        </mxCell>
        <mxCell id="0HAq0-r8FdL_kBgjU-N3-10" value="" style="rounded=0;whiteSpace=wrap;html=1;movable=1;resizable=1;rotatable=1;deletable=1;editable=1;locked=0;connectable=1;" vertex="1" parent="1">
          <mxGeometry x="-839.5" y="10" width="290" height="490" as="geometry" />
        </mxCell>
        <mxCell id="0HAq0-r8FdL_kBgjU-N3-14" value="" style="rounded=0;whiteSpace=wrap;html=1;movable=1;resizable=1;rotatable=1;deletable=1;editable=1;locked=0;connectable=1;" vertex="1" parent="1">
          <mxGeometry x="-830" y="20" width="270" height="180" as="geometry" />
        </mxCell>
        <mxCell id="0HAq0-r8FdL_kBgjU-N3-15" value="" style="endArrow=none;html=1;rounded=0;exitX=0;exitY=1;exitDx=0;exitDy=0;movable=1;resizable=1;rotatable=1;deletable=1;editable=1;locked=0;connectable=1;" edge="1" parent="1" source="0HAq0-r8FdL_kBgjU-N3-14">
          <mxGeometry width="50" height="50" relative="1" as="geometry">
            <mxPoint x="-700" y="220" as="sourcePoint" />
            <mxPoint x="-560" y="20" as="targetPoint" />
          </mxGeometry>
        </mxCell>
        <mxCell id="0HAq0-r8FdL_kBgjU-N3-16" value="" style="endArrow=none;html=1;rounded=0;entryX=0;entryY=0;entryDx=0;entryDy=0;exitX=1;exitY=1;exitDx=0;exitDy=0;movable=1;resizable=1;rotatable=1;deletable=1;editable=1;locked=0;connectable=1;" edge="1" parent="1" source="0HAq0-r8FdL_kBgjU-N3-14" target="0HAq0-r8FdL_kBgjU-N3-14">
          <mxGeometry width="50" height="50" relative="1" as="geometry">
            <mxPoint x="-700" y="220" as="sourcePoint" />
            <mxPoint x="-650" y="170" as="targetPoint" />
          </mxGeometry>
        </mxCell>
        <mxCell id="0HAq0-r8FdL_kBgjU-N3-17" value="" style="sketch=0;outlineConnect=0;fontColor=#232F3E;gradientColor=none;fillColor=#232F3D;strokeColor=none;dashed=0;verticalLabelPosition=bottom;verticalAlign=top;align=center;html=1;fontSize=12;fontStyle=0;aspect=fixed;pointerEvents=1;shape=mxgraph.aws4.gear;movable=1;resizable=1;rotatable=1;deletable=1;editable=1;locked=0;connectable=1;" vertex="1" parent="1">
          <mxGeometry x="-830" y="472" width="20" height="20" as="geometry" />
        </mxCell>
        <mxCell id="0HAq0-r8FdL_kBgjU-N3-18" value="" style="shape=image;html=1;verticalAlign=top;verticalLabelPosition=bottom;labelBackgroundColor=#ffffff;imageAspect=0;aspect=fixed;image=https://cdn0.iconfinder.com/data/icons/phosphor-duotone-vol-3/256/speaker-low-duotone-128.png;movable=1;resizable=1;rotatable=1;deletable=1;editable=1;locked=0;connectable=1;" vertex="1" parent="1">
          <mxGeometry x="-804" y="470" width="24" height="24" as="geometry" />
        </mxCell>
        <mxCell id="0HAq0-r8FdL_kBgjU-N3-19" value="" style="sketch=0;pointerEvents=1;shadow=0;dashed=0;html=1;strokeColor=none;labelPosition=center;verticalLabelPosition=bottom;verticalAlign=top;align=center;fillColor=#505050;shape=mxgraph.mscae.intune.account_portal;movable=1;resizable=1;rotatable=1;deletable=1;editable=1;locked=0;connectable=1;" vertex="1" parent="1">
          <mxGeometry x="-580" y="472" width="20" height="20" as="geometry" />
        </mxCell>
        <mxCell id="0HAq0-r8FdL_kBgjU-N3-21" value="&lt;font style=&quot;font-size: 18px;&quot;&gt;MAIN MENU V2&lt;/font&gt;" style="text;html=1;align=center;verticalAlign=middle;resizable=1;points=[];autosize=1;strokeColor=none;fillColor=none;movable=1;rotatable=1;deletable=1;editable=1;locked=0;connectable=1;" vertex="1" parent="1">
          <mxGeometry x="-770.5" y="510" width="150" height="40" as="geometry" />
        </mxCell>
        <mxCell id="0HAq0-r8FdL_kBgjU-N3-24" value="&lt;div&gt;&lt;font style=&quot;font-size: 18px;&quot;&gt;TRYING TO MAKE THIS LOOK&amp;nbsp;&lt;/font&gt;&lt;/div&gt;&lt;div&gt;&lt;font size=&quot;3&quot;&gt;LIKE AN ICE CREAM&lt;/font&gt;&lt;/div&gt;" style="text;html=1;align=center;verticalAlign=middle;resizable=1;points=[];autosize=1;strokeColor=none;fillColor=none;movable=1;rotatable=1;deletable=1;editable=1;locked=0;connectable=1;" vertex="1" parent="1">
          <mxGeometry x="-835.5" y="540" width="280" height="50" as="geometry" />
        </mxCell>
        <mxCell id="0HAq0-r8FdL_kBgjU-N3-26" value="" style="group;movable=1;resizable=1;rotatable=1;deletable=1;editable=1;locked=0;connectable=1;" vertex="1" connectable="0" parent="1">
          <mxGeometry x="-770" y="220" width="140" height="220" as="geometry" />
        </mxCell>
        <mxCell id="0HAq0-r8FdL_kBgjU-N3-11" value="&lt;font face=&quot;Comic Sans MS&quot;&gt;MODES&lt;/font&gt;" style="rounded=1;whiteSpace=wrap;html=1;movable=1;resizable=1;rotatable=1;deletable=1;editable=1;locked=0;connectable=1;" vertex="1" parent="0HAq0-r8FdL_kBgjU-N3-26">
          <mxGeometry x="15" y="110" width="110" height="30" as="geometry" />
        </mxCell>
        <mxCell id="0HAq0-r8FdL_kBgjU-N3-12" value="&lt;font face=&quot;Comic Sans MS&quot;&gt;ABOUT&lt;/font&gt;" style="rounded=1;whiteSpace=wrap;html=1;movable=1;resizable=1;rotatable=1;deletable=1;editable=1;locked=0;connectable=1;" vertex="1" parent="0HAq0-r8FdL_kBgjU-N3-26">
          <mxGeometry x="15" y="150" width="110" height="30" as="geometry" />
        </mxCell>
        <mxCell id="0HAq0-r8FdL_kBgjU-N3-25" value="&lt;font face=&quot;Comic Sans MS&quot;&gt;EXIT&lt;/font&gt;" style="rounded=1;whiteSpace=wrap;html=1;movable=1;resizable=1;rotatable=1;deletable=1;editable=1;locked=0;connectable=1;" vertex="1" parent="0HAq0-r8FdL_kBgjU-N3-26">
          <mxGeometry x="15" y="190" width="110" height="30" as="geometry" />
        </mxCell>
        <mxCell id="0HAq0-r8FdL_kBgjU-N3-8" value="" style="html=1;verticalLabelPosition=bottom;align=center;labelBackgroundColor=#ffffff;verticalAlign=top;strokeWidth=2;strokeColor=#000000;shadow=0;dashed=0;shape=mxgraph.ios7.icons.cloud;fillColor=#FFFFFF;movable=1;resizable=1;rotatable=1;deletable=1;editable=1;locked=0;connectable=1;" vertex="1" parent="0HAq0-r8FdL_kBgjU-N3-26">
          <mxGeometry width="140" height="100" as="geometry" />
        </mxCell>
        <mxCell id="0HAq0-r8FdL_kBgjU-N3-22" value="&lt;span style=&quot;font-family: &amp;quot;Comic Sans MS&amp;quot;; font-size: 36px; text-wrap: wrap;&quot;&gt;PLAY&lt;/span&gt;" style="text;html=1;align=center;verticalAlign=middle;resizable=1;points=[];autosize=1;strokeColor=none;fillColor=none;movable=1;rotatable=1;deletable=1;editable=1;locked=0;connectable=1;" vertex="1" parent="0HAq0-r8FdL_kBgjU-N3-26">
          <mxGeometry x="15" y="40" width="110" height="60" as="geometry" />
        </mxCell>
        <mxCell id="0HAq0-r8FdL_kBgjU-N3-27" value="&lt;font style=&quot;font-size: 48px;&quot;&gt;MENU&lt;/font&gt;" style="text;html=1;align=center;verticalAlign=middle;resizable=0;points=[];autosize=1;strokeColor=none;fillColor=none;" vertex="1" parent="1">
          <mxGeometry x="-374.5" y="-70" width="160" height="70" as="geometry" />
        </mxCell>
        <mxCell id="0HAq0-r8FdL_kBgjU-N3-28" value="&lt;span style=&quot;font-size: 48px;&quot;&gt;&quot;PLAY&quot; SCREEN&lt;/span&gt;" style="text;html=1;align=center;verticalAlign=middle;resizable=0;points=[];autosize=1;strokeColor=none;fillColor=none;" vertex="1" parent="1">
          <mxGeometry x="120" y="-70" width="390" height="70" as="geometry" />
        </mxCell>
        <mxCell id="0HAq0-r8FdL_kBgjU-N3-29" value="&lt;span style=&quot;font-size: 48px;&quot;&gt;MODES MENU&lt;/span&gt;" style="text;html=1;align=center;verticalAlign=middle;resizable=0;points=[];autosize=1;strokeColor=none;fillColor=none;" vertex="1" parent="1">
          <mxGeometry x="133" y="640" width="350" height="70" as="geometry" />
        </mxCell>
        <mxCell id="0HAq0-r8FdL_kBgjU-N3-31" value="&lt;span style=&quot;font-size: 48px;&quot;&gt;ABOUT&lt;/span&gt;" style="text;html=1;align=center;verticalAlign=middle;resizable=1;points=[];autosize=1;strokeColor=none;fillColor=none;movable=1;rotatable=1;deletable=1;editable=1;locked=0;connectable=1;" vertex="1" parent="1">
          <mxGeometry x="220" y="1340" width="190" height="70" as="geometry" />
        </mxCell>
        <mxCell id="0HAq0-r8FdL_kBgjU-N3-32" value="&lt;span style=&quot;font-size: 48px;&quot;&gt;EXIT&lt;/span&gt;" style="text;html=1;align=center;verticalAlign=middle;resizable=1;points=[];autosize=1;strokeColor=none;fillColor=none;movable=1;rotatable=1;deletable=1;editable=1;locked=0;connectable=1;" vertex="1" parent="1">
          <mxGeometry x="243" y="2030" width="130" height="70" as="geometry" />
        </mxCell>
        <mxCell id="0HAq0-r8FdL_kBgjU-N3-36" value="" style="group;movable=1;resizable=1;rotatable=1;deletable=1;editable=1;locked=0;connectable=1;" vertex="1" connectable="0" parent="1">
          <mxGeometry x="203" y="2200" width="210" height="260" as="geometry" />
        </mxCell>
        <mxCell id="0HAq0-r8FdL_kBgjU-N3-33" value="&lt;font style=&quot;font-size: 24px;&quot; face=&quot;Comic Sans MS&quot;&gt;ARE YOU SURE TO EXIT?&lt;/font&gt;&lt;div&gt;&lt;font style=&quot;font-size: 24px;&quot; face=&quot;Comic Sans MS&quot;&gt;&lt;br&gt;&lt;/font&gt;&lt;/div&gt;&lt;div&gt;&lt;font style=&quot;font-size: 24px;&quot; face=&quot;Comic Sans MS&quot;&gt;&lt;br&gt;&lt;/font&gt;&lt;/div&gt;&lt;div&gt;&lt;font style=&quot;font-size: 24px;&quot; face=&quot;Comic Sans MS&quot;&gt;&lt;br&gt;&lt;/font&gt;&lt;/div&gt;&lt;div&gt;&lt;font style=&quot;font-size: 24px;&quot; face=&quot;Comic Sans MS&quot;&gt;&lt;br&gt;&lt;/font&gt;&lt;/div&gt;" style="rounded=0;whiteSpace=wrap;html=1;movable=1;resizable=1;rotatable=1;deletable=1;editable=1;locked=0;connectable=1;" vertex="1" parent="0HAq0-r8FdL_kBgjU-N3-36">
          <mxGeometry width="210" height="260" as="geometry" />
        </mxCell>
        <mxCell id="0HAq0-r8FdL_kBgjU-N3-34" value="&lt;font face=&quot;Comic Sans MS&quot;&gt;UNFORTUNATELY, YES&lt;/font&gt;" style="rounded=1;whiteSpace=wrap;html=1;movable=1;resizable=1;rotatable=1;deletable=1;editable=1;locked=0;connectable=1;" vertex="1" parent="0HAq0-r8FdL_kBgjU-N3-36">
          <mxGeometry x="45" y="220" width="120" height="30" as="geometry" />
        </mxCell>
        <mxCell id="0HAq0-r8FdL_kBgjU-N3-35" value="&lt;font style=&quot;font-size: 18px;&quot; face=&quot;Comic Sans MS&quot;&gt;NO, JUST MISCLICKED&lt;/font&gt;" style="rounded=1;whiteSpace=wrap;html=1;movable=1;resizable=1;rotatable=1;deletable=1;editable=1;locked=0;connectable=1;" vertex="1" parent="0HAq0-r8FdL_kBgjU-N3-36">
          <mxGeometry x="10" y="135" width="190" height="60" as="geometry" />
        </mxCell>
        <mxCell id="0HAq0-r8FdL_kBgjU-N3-37" value="" style="rounded=0;whiteSpace=wrap;html=1;movable=1;resizable=1;rotatable=1;deletable=1;editable=1;locked=0;connectable=1;" vertex="1" parent="1">
          <mxGeometry x="1323" y="710" width="310" height="510" as="geometry" />
        </mxCell>
        <mxCell id="0HAq0-r8FdL_kBgjU-N3-38" value="" style="rounded=0;whiteSpace=wrap;html=1;movable=1;resizable=1;rotatable=1;deletable=1;editable=1;locked=0;connectable=1;" vertex="1" parent="1">
          <mxGeometry x="1333" y="720" width="290" height="490" as="geometry" />
        </mxCell>
        <mxCell id="0HAq0-r8FdL_kBgjU-N3-39" value="" style="shape=flexArrow;endArrow=classic;html=1;rounded=0;movable=1;resizable=1;rotatable=1;deletable=1;editable=1;locked=0;connectable=1;" edge="1" parent="1">
          <mxGeometry width="50" height="50" relative="1" as="geometry">
            <mxPoint x="1383" y="1182" as="sourcePoint" />
            <mxPoint x="1346" y="1182" as="targetPoint" />
          </mxGeometry>
        </mxCell>
        <mxCell id="0HAq0-r8FdL_kBgjU-N3-40" value="&lt;span style=&quot;font-size: 48px;&quot;&gt;&quot;MP&quot; SCREEN&lt;/span&gt;" style="text;html=1;align=center;verticalAlign=middle;resizable=0;points=[];autosize=1;strokeColor=none;fillColor=none;" vertex="1" parent="1">
          <mxGeometry x="1315" y="640" width="340" height="70" as="geometry" />
        </mxCell>
        <mxCell id="0HAq0-r8FdL_kBgjU-N3-41" value="&lt;span style=&quot;font-size: 48px;&quot;&gt;MULTIPLAYER MENU&lt;/span&gt;" style="text;html=1;align=center;verticalAlign=middle;resizable=0;points=[];autosize=1;strokeColor=none;fillColor=none;" vertex="1" parent="1">
          <mxGeometry x="645" y="640" width="500" height="70" as="geometry" />
        </mxCell>
        <mxCell id="0HAq0-r8FdL_kBgjU-N3-46" value="&lt;div&gt;&lt;span style=&quot;font-size: 18px;&quot;&gt;CHALLENGE AND PUZZLE HAVE&amp;nbsp;&lt;/span&gt;&lt;/div&gt;&lt;div&gt;&lt;span style=&quot;font-size: 18px;&quot;&gt;THE SAME PAGE WIREFRAME&amp;nbsp;&lt;/span&gt;&lt;/div&gt;&lt;div&gt;&lt;span style=&quot;font-size: 18px;&quot;&gt;AS &quot;PLAY&quot; SCREEN.&lt;/span&gt;&lt;/div&gt;" style="text;html=1;align=center;verticalAlign=middle;resizable=1;points=[];autosize=1;strokeColor=none;fillColor=none;movable=1;rotatable=1;deletable=1;editable=1;locked=0;connectable=1;" vertex="1" parent="1">
          <mxGeometry x="-160" y="940" width="310" height="80" as="geometry" />
        </mxCell>
        <mxCell id="0HAq0-r8FdL_kBgjU-N3-47" value="&lt;div&gt;&lt;span style=&quot;font-size: 18px;&quot;&gt;STILL NOT SURE HOW&amp;nbsp; TO FORMAT&amp;nbsp;&lt;/span&gt;&lt;/div&gt;&lt;div&gt;&lt;span style=&quot;font-size: 18px;&quot;&gt;THE SCREEN FOR THE GAME PLAY.&lt;/span&gt;&lt;/div&gt;" style="text;html=1;align=center;verticalAlign=middle;resizable=1;points=[];autosize=1;strokeColor=none;fillColor=none;movable=1;rotatable=1;deletable=1;editable=1;locked=0;connectable=1;" vertex="1" parent="1">
          <mxGeometry x="835" y="210" width="340" height="60" as="geometry" />
        </mxCell>
        <mxCell id="0HAq0-r8FdL_kBgjU-N3-74" value="" style="shape=actor;whiteSpace=wrap;html=1;" vertex="1" parent="1">
          <mxGeometry x="1350" y="740" width="40" height="60" as="geometry" />
        </mxCell>
        <mxCell id="0HAq0-r8FdL_kBgjU-N3-77" value="" style="group" vertex="1" connectable="0" parent="1">
          <mxGeometry x="-400" y="220" width="210" height="80" as="geometry" />
        </mxCell>
        <mxCell id="FpdwGnJEtoLcLrsZp1eF-174" value="" style="rounded=1;whiteSpace=wrap;html=1;movable=1;resizable=1;rotatable=1;deletable=1;editable=1;locked=0;connectable=1;" parent="0HAq0-r8FdL_kBgjU-N3-77" vertex="1">
          <mxGeometry width="210" height="80" as="geometry" />
        </mxCell>
        <mxCell id="0HAq0-r8FdL_kBgjU-N3-75" value="&lt;span style=&quot;font-family: &amp;quot;Comic Sans MS&amp;quot;; font-size: 36px; text-wrap: wrap;&quot;&gt;PLAY&lt;/span&gt;" style="text;html=1;align=center;verticalAlign=middle;resizable=0;points=[];autosize=1;strokeColor=none;fillColor=none;" vertex="1" parent="0HAq0-r8FdL_kBgjU-N3-77">
          <mxGeometry x="49.5" width="110" height="60" as="geometry" />
        </mxCell>
        <mxCell id="0HAq0-r8FdL_kBgjU-N3-76" value="&lt;font face=&quot;Comic Sans MS&quot;&gt;LEVEL: XXX&lt;/font&gt;" style="text;html=1;align=center;verticalAlign=middle;resizable=0;points=[];autosize=1;strokeColor=none;fillColor=none;" vertex="1" parent="0HAq0-r8FdL_kBgjU-N3-77">
          <mxGeometry x="59.5" y="50" width="90" height="30" as="geometry" />
        </mxCell>
      </root>
    </mxGraphModel>
  </diagram>
  <diagram id="w4UMFSbplzNyULMXCYzB" name="wireframe-flowchart">
    <mxGraphModel dx="1600" dy="-249" grid="1" gridSize="10" guides="1" tooltips="1" connect="1" arrows="1" fold="1" page="1" pageScale="1" pageWidth="850" pageHeight="1100" math="0" shadow="0">
      <root>
        <mxCell id="0" />
        <mxCell id="1" parent="0" />
        <mxCell id="zjENKy9BUK6fdoM1HoxC-1" value="" style="edgeStyle=orthogonalEdgeStyle;rounded=0;orthogonalLoop=1;jettySize=auto;html=1;" edge="1" parent="1" source="zjENKy9BUK6fdoM1HoxC-7" target="zjENKy9BUK6fdoM1HoxC-8">
          <mxGeometry relative="1" as="geometry">
            <Array as="points">
              <mxPoint x="1075" y="1700" />
            </Array>
          </mxGeometry>
        </mxCell>
        <mxCell id="zjENKy9BUK6fdoM1HoxC-2" value="" style="edgeStyle=orthogonalEdgeStyle;rounded=0;orthogonalLoop=1;jettySize=auto;html=1;" edge="1" parent="1" source="zjENKy9BUK6fdoM1HoxC-7" target="zjENKy9BUK6fdoM1HoxC-12">
          <mxGeometry relative="1" as="geometry">
            <Array as="points">
              <mxPoint x="1075" y="1845" />
            </Array>
          </mxGeometry>
        </mxCell>
        <mxCell id="zjENKy9BUK6fdoM1HoxC-3" value="" style="edgeStyle=orthogonalEdgeStyle;rounded=0;orthogonalLoop=1;jettySize=auto;html=1;" edge="1" parent="1" source="zjENKy9BUK6fdoM1HoxC-7" target="zjENKy9BUK6fdoM1HoxC-13">
          <mxGeometry relative="1" as="geometry">
            <Array as="points">
              <mxPoint x="1075" y="2000" />
            </Array>
          </mxGeometry>
        </mxCell>
        <mxCell id="zjENKy9BUK6fdoM1HoxC-4" value="" style="edgeStyle=orthogonalEdgeStyle;rounded=0;orthogonalLoop=1;jettySize=auto;html=1;" edge="1" parent="1" source="zjENKy9BUK6fdoM1HoxC-7" target="zjENKy9BUK6fdoM1HoxC-14">
          <mxGeometry relative="1" as="geometry">
            <Array as="points">
              <mxPoint x="1075" y="2160" />
            </Array>
          </mxGeometry>
        </mxCell>
        <mxCell id="zjENKy9BUK6fdoM1HoxC-5" value="" style="edgeStyle=orthogonalEdgeStyle;rounded=0;orthogonalLoop=1;jettySize=auto;html=1;" edge="1" parent="1">
          <mxGeometry relative="1" as="geometry">
            <mxPoint x="995" y="1520" as="sourcePoint" />
            <mxPoint x="930" y="1610" as="targetPoint" />
            <Array as="points">
              <mxPoint x="930" y="1520" />
            </Array>
          </mxGeometry>
        </mxCell>
        <mxCell id="zjENKy9BUK6fdoM1HoxC-6" value="" style="edgeStyle=orthogonalEdgeStyle;rounded=0;orthogonalLoop=1;jettySize=auto;html=1;" edge="1" parent="1" source="zjENKy9BUK6fdoM1HoxC-7" target="zjENKy9BUK6fdoM1HoxC-16">
          <mxGeometry relative="1" as="geometry" />
        </mxCell>
        <mxCell id="zjENKy9BUK6fdoM1HoxC-7" value="&lt;font style=&quot;font-size: 18px;&quot;&gt;MAIN MENU&lt;/font&gt;" style="rounded=0;whiteSpace=wrap;html=1;" vertex="1" parent="1">
          <mxGeometry x="995" y="1470" width="160" height="100" as="geometry" />
        </mxCell>
        <mxCell id="zjENKy9BUK6fdoM1HoxC-8" value="&lt;font style=&quot;font-size: 18px;&quot;&gt;PLAY&lt;/font&gt;" style="rounded=0;whiteSpace=wrap;html=1;" vertex="1" parent="1">
          <mxGeometry x="1155" y="1640" width="160" height="100" as="geometry" />
        </mxCell>
        <mxCell id="zjENKy9BUK6fdoM1HoxC-9" value="" style="edgeStyle=orthogonalEdgeStyle;rounded=0;orthogonalLoop=1;jettySize=auto;html=1;" edge="1" parent="1" source="zjENKy9BUK6fdoM1HoxC-12" target="zjENKy9BUK6fdoM1HoxC-19">
          <mxGeometry relative="1" as="geometry" />
        </mxCell>
        <mxCell id="zjENKy9BUK6fdoM1HoxC-10" value="" style="edgeStyle=orthogonalEdgeStyle;rounded=0;orthogonalLoop=1;jettySize=auto;html=1;" edge="1" parent="1" source="zjENKy9BUK6fdoM1HoxC-12" target="zjENKy9BUK6fdoM1HoxC-20">
          <mxGeometry relative="1" as="geometry" />
        </mxCell>
        <mxCell id="zjENKy9BUK6fdoM1HoxC-11" value="" style="edgeStyle=orthogonalEdgeStyle;rounded=0;orthogonalLoop=1;jettySize=auto;html=1;" edge="1" parent="1" source="zjENKy9BUK6fdoM1HoxC-12" target="zjENKy9BUK6fdoM1HoxC-21">
          <mxGeometry relative="1" as="geometry" />
        </mxCell>
        <mxCell id="zjENKy9BUK6fdoM1HoxC-12" value="&lt;span style=&quot;font-size: 18px;&quot;&gt;MODES MENU&lt;/span&gt;" style="rounded=0;whiteSpace=wrap;html=1;" vertex="1" parent="1">
          <mxGeometry x="1155" y="1795" width="160" height="100" as="geometry" />
        </mxCell>
        <mxCell id="zjENKy9BUK6fdoM1HoxC-13" value="&lt;font style=&quot;font-size: 18px;&quot;&gt;ABOUT&lt;/font&gt;" style="rounded=0;whiteSpace=wrap;html=1;" vertex="1" parent="1">
          <mxGeometry x="1155" y="1950" width="160" height="100" as="geometry" />
        </mxCell>
        <mxCell id="zjENKy9BUK6fdoM1HoxC-14" value="&lt;font style=&quot;font-size: 18px;&quot;&gt;EXIT&lt;/font&gt;" style="rounded=0;whiteSpace=wrap;html=1;" vertex="1" parent="1">
          <mxGeometry x="1155" y="2110" width="160" height="100" as="geometry" />
        </mxCell>
        <mxCell id="zjENKy9BUK6fdoM1HoxC-15" value="&lt;font style=&quot;font-size: 18px;&quot;&gt;SETTINGS&lt;/font&gt;" style="rounded=0;whiteSpace=wrap;html=1;" vertex="1" parent="1">
          <mxGeometry x="850" y="1620" width="160" height="100" as="geometry" />
        </mxCell>
        <mxCell id="zjENKy9BUK6fdoM1HoxC-16" value="&lt;font style=&quot;font-size: 18px;&quot;&gt;ACCOUNT SETTINGS&lt;/font&gt;" style="rounded=0;whiteSpace=wrap;html=1;" vertex="1" parent="1">
          <mxGeometry x="645" y="1620" width="160" height="100" as="geometry" />
        </mxCell>
        <mxCell id="zjENKy9BUK6fdoM1HoxC-17" value="" style="edgeStyle=orthogonalEdgeStyle;rounded=0;orthogonalLoop=1;jettySize=auto;html=1;" edge="1" parent="1" source="zjENKy9BUK6fdoM1HoxC-19" target="zjENKy9BUK6fdoM1HoxC-22">
          <mxGeometry relative="1" as="geometry">
            <Array as="points">
              <mxPoint x="1455" y="2160" />
            </Array>
          </mxGeometry>
        </mxCell>
        <mxCell id="zjENKy9BUK6fdoM1HoxC-18" value="" style="edgeStyle=orthogonalEdgeStyle;rounded=0;orthogonalLoop=1;jettySize=auto;html=1;" edge="1" parent="1" source="zjENKy9BUK6fdoM1HoxC-19" target="zjENKy9BUK6fdoM1HoxC-23">
          <mxGeometry relative="1" as="geometry">
            <Array as="points">
              <mxPoint x="1455" y="2325" />
            </Array>
          </mxGeometry>
        </mxCell>
        <mxCell id="zjENKy9BUK6fdoM1HoxC-19" value="&lt;span style=&quot;font-size: 18px;&quot;&gt;MULTIPLAYER&lt;/span&gt;" style="rounded=0;whiteSpace=wrap;html=1;" vertex="1" parent="1">
          <mxGeometry x="1375" y="1950" width="160" height="100" as="geometry" />
        </mxCell>
        <mxCell id="zjENKy9BUK6fdoM1HoxC-20" value="&lt;span style=&quot;font-size: 18px;&quot;&gt;CHALLENGE&lt;/span&gt;" style="rounded=0;whiteSpace=wrap;html=1;" vertex="1" parent="1">
          <mxGeometry x="1596" y="1950" width="160" height="100" as="geometry" />
        </mxCell>
        <mxCell id="zjENKy9BUK6fdoM1HoxC-21" value="&lt;span style=&quot;font-size: 18px;&quot;&gt;PUZZLE&lt;/span&gt;" style="rounded=0;whiteSpace=wrap;html=1;" vertex="1" parent="1">
          <mxGeometry x="1815" y="1950" width="160" height="100" as="geometry" />
        </mxCell>
        <mxCell id="zjENKy9BUK6fdoM1HoxC-22" value="&lt;span style=&quot;font-size: 18px;&quot;&gt;ONLINE&lt;/span&gt;" style="rounded=0;whiteSpace=wrap;html=1;" vertex="1" parent="1">
          <mxGeometry x="1596" y="2110" width="160" height="100" as="geometry" />
        </mxCell>
        <mxCell id="zjENKy9BUK6fdoM1HoxC-23" value="&lt;span style=&quot;font-size: 18px;&quot;&gt;LOCAL&lt;/span&gt;" style="rounded=0;whiteSpace=wrap;html=1;" vertex="1" parent="1">
          <mxGeometry x="1596" y="2275" width="160" height="100" as="geometry" />
        </mxCell>
      </root>
    </mxGraphModel>
  </diagram>
</mxfile>
